{"title":"Killer Flick - DVDRip - Xvid - Ghostman + Greenfrogr - Ã‚Âº(ÃƒË†LÃƒÅ½T","uid":5392075,"size":723259015,"categoryP":"video","categoryS":"movies","magnet":"?xt=urn:btih:0ed5e6da9b992c3491f84ef52f402e7faca067b1&amp;dn=Killer+Flick+-+DVDRip+-+Xvid+-+Ghostman+%2B+Greenfrogr+-+%C3%82%C2%BA%28%C3%83%CB%86L%C3%83%C5%BDT&amp;tr=udp%3A%2F%2Ftracker.openbittorrent.com%3A80&amp;tr=udp%3A%2F%2Fopen.demonii.com%3A1337&amp;tr=udp%3A%2F%2Ftracker.coppersurfer.tk%3A6969&amp;tr=udp%3A%2F%2Fexodus.desync.com%3A6969","seeders":0,"leechers":1,"uploader":"greenfrogR","files":-1,"time":1267098546,"description":"The film centers on four aspiring filmmakers, Rome, Buzz, Max, and One-Eye, who go on a surreal rampage and make their exploits into a movie. While evading law enforcement, the filmmakers discuss their plans on how to make their movie as violent and sexy as possible so that they can sell it for a lot of money.\nTravel across the desert to Hollywood in hopes of kidnapping their favorite b-movie actor and forcing him to star in their movie.\n\n\nThis Overlooked movie made in 1998 is\nSoon to be a New Cult Classic!!\n\n\n\nFormat : AVI\nFormat/Info : Audio Video Interleave\nFile size : 699 MiB\nDuration : 1h 33mn\nOverall bit rate : 1 049 Kbps\nWriting application : VirtualDubMod 1.5.10.3 | www.virtualdub-fr.org || (build 2550/release)\nWriting library : VirtualDubMod build 2550/release\n\nVideo\nID : 0\nFormat : MPEG-4 Visual\nFormat profile : Advanced Simple@L5\nFormat settings, BVOP : Yes\nFormat settings, QPel : No\nFormat settings, GMC : No warppoints\nFormat settings, Matrix : Default (H.263)\nMuxing mode : Packed bitstream\nCodec ID : XVID\nCodec ID/Hint : XviD\nDuration : 1h 33mn\nBit rate : 912 Kbps\nWidth : 640 pixels\nHeight : 480 pixels\nDisplay aspect ratio : 4:3\nFrame rate : 23.976 fps\nResolution : 8 bits\nColorimetry : 4:2:0\nScan type : Progressive\nBits/(Pixel*Frame) : 0.124\nStream size : 607 MiB (87%)\nWriting library : XviD 1.2.1 (UTC 2008-12-04)\n\nAudio\nID : 1\nFormat : MPEG Audio\nFormat version : Version 1\nFormat profile : Layer 3\nCodec ID : 55\nCodec ID/Hint : MP3\nDuration : 1h 33mn\nBit rate mode : Constant\nBit rate : 128 Kbps\nChannel(s) : 2 channels\nSampling rate : 48.0 KHz\nStream size : 85.2 MiB (12%)\nAlignment : Aligned on interleaves\nInterleave, duration : 42 ms (1.00 video frame)\nInterleave, preload duration : 504 ms\nWriting library : LAME3.98r\nEncoding settings : -m s -V 4 -q 3 -lowpass 17 -b 128\n\n\n\n\n\nThis is a Kick Ass movie!!!\n\nMust Have!!!!!!!!!!!!!!!!!!","torrent":{"xt":"urn:btih:0ed5e6da9b992c3491f84ef52f402e7faca067b1","amp;dn":"Killer+Flick+-+DVDRip+-+Xvid+-+Ghostman+%2B+Greenfrogr+-+%C3%82%C2%BA%28%C3%83%CB%86L%C3%83%C5%BDT","amp;tr":["udp%3A%2F%2Ftracker.openbittorrent.com%3A80","udp%3A%2F%2Fopen.demonii.com%3A1337","udp%3A%2F%2Ftracker.coppersurfer.tk%3A6969","udp%3A%2F%2Fexodus.desync.com%3A6969"],"infoHash":"0ed5e6da9b992c3491f84ef52f402e7faca067b1","infoHashBuffer":{"type":"Buffer","data":[14,213,230,218,155,153,44,52,145,248,78,245,47,64,46,127,172,160,103,177]},"announce":[],"urlList":[]}}